<svg width="197" height="213" viewBox="0 0 197 213" fill="none" xmlns="http://www.w3.org/2000/svg">
<path d="M106.5 22.4997C99.1299 13.3721 20.3401 44.5819 20 88.9999L17.5 211L188.5 209L180 86.4998C166.813 25.3197 113.608 20.0394 106.5 22.4997Z" fill="black" stroke="black" stroke-width="2" stroke-linecap="round"/>
<path d="M168.023 97.6717C170.969 139.498 153.846 168.135 103.863 174.129C65.2054 178.765 36.1832 148.918 33.2373 107.092C30.2914 65.2658 58.0759 29.2503 95.2959 26.649C132.516 24.0477 164.736 51.0089 168.023 97.6717Z" fill="#EECDA0"/>
<path d="M20.154 111C19.6214 104.311 23.7915 98.5241 29.4682 98.075C35.1449 97.6258 39.8819 98.9583 40.7113 109.374C41.5406 119.789 37.0738 121.85 31.3971 122.299C25.7204 122.748 20.6867 117.689 20.154 111Z" fill="#EECDA0"/>
<path d="M181.009 112.336C181.229 119.042 176.794 124.628 171.102 124.811C165.411 124.995 160.741 123.442 160.397 113C160.054 102.558 164.612 100.708 170.304 100.525C175.996 100.341 180.788 105.629 181.009 112.336Z" fill="#EECDA0"/>
<ellipse rx="4.05072" ry="4.79479" transform="matrix(0.999089 -0.0426826 0.0433082 0.999062 73.2411 87.9338)" fill="black"/>
<ellipse rx="4.05072" ry="4.79479" transform="matrix(0.999089 -0.0426826 0.0433082 0.999062 128.269 90.3681)" fill="black"/>
<ellipse rx="6.78353" ry="3.68824" transform="matrix(0.999866 -0.0163585 0.0170668 0.999854 66.4037 104.528)" fill="#CE906F"/>
<ellipse rx="6.78353" ry="3.68824" transform="matrix(0.999866 -0.0163585 0.0170668 0.999854 135.058 103.749)" fill="#CE906F"/>
<path d="M71.7839 124.781C75.056 134.658 86.4084 144.355 101.997 143.805C128.008 142.889 134.181 125.335 134.514 122.873" stroke="black" stroke-width="3" stroke-linecap="round"/>
<path d="M98.6837 103.789C104.562 98.2343 111.721 110.947 100.377 110.969" stroke="black" stroke-width="3" stroke-linecap="round"/>
<path d="M31.0731 95.3522C58.0384 92.2036 99.6019 49.2633 117.013 28.1868L116.69 25.4205L78.2296 27.4578L53.6241 43.6497C34.8716 62.1957 4.10793 98.5007 31.0731 95.3522Z" fill="black" stroke="black"/>
<path d="M173.129 97.4215C165.093 108.564 96.237 34.3504 104.626 26.8882C113.016 19.4259 144.818 34.0372 144.818 34.0372C156.608 50.7925 181.165 86.2792 173.129 97.4215Z" fill="black" stroke="black"/>
</svg>
