<svg width="89" height="115" viewBox="0 0 89 115" fill="none" xmlns="http://www.w3.org/2000/svg">
<path d="M0 40.2743C0 35.856 3.58172 32.2743 8 32.2743H86V106.274C86 110.693 82.4183 114.274 78 114.274H8C3.58172 114.274 0 110.693 0 106.274V40.2743Z" fill="#E4E3E3"/>
<path d="M0 15.2743C0 10.856 3.58172 7.27429 8 7.27429H66V77.2743C66 81.6926 62.4183 85.2743 58 85.2743H8C3.58172 85.2743 0 81.6926 0 77.2743V15.2743Z" fill="#E4E3E3"/>
<path d="M63.7483 9.25981C63.7437 7.3637 66.1341 6.52618 67.3139 8.01051L85.5772 30.9871C86.6203 32.2994 85.683 34.2356 84.0066 34.2315L76.3607 34.2128L65.7987 34.1871C64.6979 34.1844 63.8063 33.2927 63.8036 32.1919L63.7704 18.435L63.7483 9.25981Z" fill="#CBCBCB"/>
</svg>
