<svg width="48" height="48" viewBox="0 0 48 48" fill="none" xmlns="http://www.w3.org/2000/svg">
<path d="M42.1875 0H5.0625C2.26758 0 0 2.26758 0 5.0625V42.1875C0 44.9824 2.26758 47.25 5.0625 47.25H42.1875C44.9824 47.25 47.25 44.9824 47.25 42.1875V5.0625C47.25 2.26758 44.9824 0 42.1875 0ZM29.2465 40.4684C28.3605 40.6266 28.0336 40.0781 28.0336 39.6246C28.0336 39.0551 28.0547 36.1441 28.0547 33.7922C28.0547 32.1469 27.5062 31.1027 26.8629 30.5543C30.7652 30.1219 34.8785 29.584 34.8785 22.8445C34.8785 20.925 34.193 19.9652 33.075 18.7313C33.2543 18.2777 33.8555 16.4109 32.8957 13.9852C31.4297 13.5316 28.0758 15.873 28.0758 15.873C26.6836 15.4828 25.1754 15.2824 23.6883 15.2824C22.2012 15.2824 20.693 15.4828 19.3008 15.873C19.3008 15.873 15.9469 13.5316 14.4809 13.9852C13.5211 16.4004 14.1117 18.2672 14.3016 18.7313C13.1836 19.9652 12.6562 20.925 12.6562 22.8445C12.6562 29.5523 16.5902 30.1219 20.4926 30.5543C19.9863 31.0078 19.5328 31.7883 19.3746 32.9062C18.3727 33.3598 15.8098 34.1402 14.2805 31.4402C13.3207 29.7738 11.591 29.6367 11.591 29.6367C9.88242 29.6156 11.475 30.7125 11.475 30.7125C12.6141 31.2398 13.4156 33.2648 13.4156 33.2648C14.4387 36.3973 19.3324 35.3426 19.3324 35.3426C19.3324 36.8086 19.3535 39.1922 19.3535 39.6246C19.3535 40.0781 19.0371 40.6266 18.1406 40.4684C11.1797 38.1375 6.30703 31.5141 6.30703 23.7727C6.30703 14.0906 13.7109 6.73945 23.393 6.73945C33.075 6.73945 40.9219 14.0906 40.9219 23.7727C40.9324 31.5141 36.2074 38.1481 29.2465 40.4684ZM18.9 34.0242C18.6996 34.0664 18.5098 33.982 18.4887 33.8449C18.4676 33.6867 18.6047 33.5496 18.8051 33.5074C19.0055 33.4863 19.1953 33.5707 19.2164 33.7078C19.248 33.8449 19.1109 33.982 18.9 34.0242ZM17.898 33.9293C17.898 34.0664 17.7398 34.1824 17.5289 34.1824C17.2969 34.2035 17.1387 34.0875 17.1387 33.9293C17.1387 33.7922 17.2969 33.6762 17.5078 33.6762C17.7082 33.6551 17.898 33.7711 17.898 33.9293ZM16.4531 33.8133C16.4109 33.9504 16.2 34.0137 16.0207 33.9504C15.8203 33.9082 15.6832 33.75 15.7254 33.6129C15.7676 33.4758 15.9785 33.4125 16.1578 33.4547C16.3687 33.518 16.5059 33.6762 16.4531 33.8133ZM15.1559 33.2438C15.0609 33.3598 14.8605 33.3387 14.7023 33.1805C14.5441 33.0434 14.502 32.843 14.6074 32.748C14.7023 32.632 14.9027 32.6531 15.0609 32.8113C15.198 32.9484 15.2508 33.1594 15.1559 33.2438ZM14.1961 32.284C14.1012 32.3473 13.9219 32.284 13.8059 32.1258C13.6898 31.9676 13.6898 31.7883 13.8059 31.7145C13.9219 31.6195 14.1012 31.6934 14.1961 31.8516C14.3121 32.0098 14.3121 32.1996 14.1961 32.284ZM13.5105 31.2609C13.4156 31.3559 13.2574 31.3031 13.1414 31.1977C13.0254 31.0605 13.0043 30.9023 13.0992 30.8285C13.1941 30.7336 13.3523 30.7863 13.4684 30.8918C13.5844 31.0289 13.6055 31.1871 13.5105 31.2609ZM12.8039 30.4805C12.7617 30.5754 12.6246 30.5965 12.5086 30.5227C12.3715 30.4594 12.3082 30.3434 12.3504 30.2484C12.3926 30.1852 12.5086 30.1535 12.6457 30.2062C12.7828 30.2801 12.8461 30.3961 12.8039 30.4805Z" fill="#E4E3E3"/>
</svg>
