<svg width="48" height="48" viewBox="0 0 48 48" fill="none" xmlns="http://www.w3.org/2000/svg">
<path d="M43.875 0H3.36445C1.5082 0 0 1.5293 0 3.40664V43.8434C0 45.7207 1.5082 47.25 3.36445 47.25H43.875C45.7313 47.25 47.25 45.7207 47.25 43.8434V3.40664C47.25 1.5293 45.7313 0 43.875 0ZM14.2805 40.5H7.27734V17.9508H14.291V40.5H14.2805ZM10.7789 14.8711C8.53242 14.8711 6.71836 13.0465 6.71836 10.8105C6.71836 8.57461 8.53242 6.75 10.7789 6.75C13.0148 6.75 14.8395 8.57461 14.8395 10.8105C14.8395 13.057 13.0254 14.8711 10.7789 14.8711ZM40.5316 40.5H33.5285V29.5312C33.5285 26.9156 33.4758 23.5512 29.8898 23.5512C26.2406 23.5512 25.6816 26.3988 25.6816 29.3414V40.5H18.6785V17.9508H25.3969V21.0305H25.4918C26.4305 19.2586 28.7191 17.3918 32.1258 17.3918C39.2133 17.3918 40.5316 22.0641 40.5316 28.1391V40.5Z" fill="#2F8895"/>
</svg>
