<svg width="54" height="41" viewBox="0 0 54 41" fill="none" xmlns="http://www.w3.org/2000/svg">
<path d="M52.977 13.3734C53.3883 13.0465 54 13.3523 54 13.8691V35.4375C54 38.2324 51.7324 40.5 48.9375 40.5H5.0625C2.26758 40.5 0 38.2324 0 35.4375V13.8797C0 13.3523 0.601172 13.057 1.02305 13.384C3.38555 15.2191 6.51797 17.55 17.2758 25.3652C19.5012 26.9895 23.2559 30.4066 27 30.3855C30.7652 30.4172 34.5938 26.9262 36.7348 25.3652C47.4926 17.55 50.6145 15.2086 52.977 13.3734ZM27 27C29.4469 27.0422 32.9695 23.9203 34.7414 22.6336C48.7371 12.477 49.8023 11.591 53.0297 9.05976C53.6414 8.58516 54 7.84688 54 7.06641V5.0625C54 2.26758 51.7324 0 48.9375 0H5.0625C2.26758 0 0 2.26758 0 5.0625V7.06641C0 7.84688 0.358594 8.57461 0.970312 9.05976C4.19766 11.5805 5.26289 12.477 19.2586 22.6336C21.0305 23.9203 24.5531 27.0422 27 27Z" fill="#383838"/>
</svg>
