<svg width="300" height="462" viewBox="0 0 300 462" fill="none" xmlns="http://www.w3.org/2000/svg">
<path d="M104.731 1.4103C125.618 0.30916 141.922 1.04124 141.922 8.41829C141.922 15.7953 150.037 9.72512 154.81 9.89383C159.582 10.0625 183.775 26.616 188.318 35.3446C192.862 44.0733 200.007 61.4938 199.365 77.0248C196.788 149.566 191.632 295.754 191.632 300.18C191.632 304.607 155.055 298.336 136.767 294.648C95.5256 284.566 16.3571 251.123 16.3571 161.123C16.3571 71.1233 43.974 36.4513 58.3348 25.0168C66.0675 18.3775 83.7424 2.51685 104.731 1.4103Z" fill="black" stroke="black"/>
<path d="M144.744 6.94287C142.965 6.94287 141.791 9.78709 140.497 9.78709C139.203 9.78709 164.559 23.5341 161.559 15.4755C158.56 7.41689 146.967 6.94287 144.744 6.94287Z" fill="black" stroke="black"/>
<path d="M73.0638 169.238L78.219 137.148L133.085 112.435L115.41 177.721L144.868 212.394L117.987 244.853L55.0208 233.049L45.0787 165.549L73.0638 169.238Z" fill="#EECDA0" stroke="#DEBF94"/>
<path d="M182.238 99.9584C175.505 141.344 152.266 165.287 102.242 159.648C63.5522 155.286 42.1557 119.575 48.8888 78.1895C55.622 36.804 90.9314 8.12753 127.755 14.1388C164.578 20.1501 189.75 53.7872 182.238 99.9584Z" fill="#EECDA0"/>
<path d="M39.2752 86.084C40.2921 79.4511 45.6791 74.7761 51.3074 75.6419C56.9356 76.5078 61.2403 78.8919 59.6568 89.2195C58.0734 99.5471 53.2529 100.527 47.6247 99.6616C41.9964 98.7957 38.2582 92.7168 39.2752 86.084Z" fill="#EECDA0"/>
<path d="M189.661 112.938C188.337 119.516 182.738 123.935 177.156 122.807C171.574 121.679 167.385 119.096 169.448 108.854C171.511 98.6112 176.372 97.8572 181.953 98.9852C187.535 100.113 190.986 106.36 189.661 112.938Z" fill="#EECDA0"/>
<path d="M49.5968 74.074C76.7452 74.074 123.008 36.2438 142.746 17.3288V14.5437L104.309 12.1068L77.9918 25.3358C57.215 41.5818 22.4484 74.074 49.5968 74.074Z" fill="black" stroke="black"/>
<path d="M184.232 96.4034C173.313 104.74 128.908 13.762 139.099 9.04997C149.29 4.33796 175.497 27.5356 175.497 27.5356C181.927 46.9877 195.151 88.0668 184.232 96.4034Z" fill="black" stroke="black"/>
<path d="M233.242 174.402L213.358 182.516V211.656L239.134 204.279C248.53 199.83 252.776 194.795 259.018 182.516L295.84 100.631C299.18 93.5035 299.56 89.3706 298.418 81.8198C296.404 76.8828 294.558 74.7028 287.739 73.7051C276.628 75.2795 265.361 97.7677 264.541 93.6231C263.722 89.4785 258.281 87.7215 256.44 93.6231C254.599 99.5247 255.953 105.55 259.018 114.279C251.999 138.138 245.432 151.188 233.242 174.402Z" fill="#EECDA0" stroke="#EECDA0" stroke-linecap="square"/>
<ellipse rx="4.05072" ry="4.79479" transform="matrix(0.982211 0.18778 -0.187165 0.982328 90.0914 77.3315)" fill="black"/>
<path d="M109.518 98.7868C116.514 94.7298 120.565 108.746 109.518 106.164" stroke="black" stroke-width="3" stroke-linecap="round"/>
<path d="M81.533 106.533C82.4508 116.897 91.2743 128.94 106.572 131.984C132.1 137.062 142.137 121.394 143.027 119.074" stroke="black" stroke-width="3" stroke-linecap="round"/>
<ellipse rx="4.05072" ry="4.79479" transform="matrix(0.982211 0.18778 -0.187165 0.982328 139.434 88.3971)" fill="black"/>
<ellipse rx="6.78353" ry="3.68824" transform="matrix(0.976926 0.21358 -0.212888 0.977077 79.5208 90.6477)" fill="#CE906F"/>
<ellipse rx="6.78353" ry="3.68824" transform="matrix(0.976926 0.21358 -0.212888 0.977077 146.388 105.684)" fill="#CE906F"/>
<rect width="33.8813" height="24.7881" transform="matrix(0.959665 0.281146 -0.280267 0.959922 113.52 177.353)" fill="#EECDA0"/>
<path d="M106.572 230.836C87.2634 241.402 64.5039 193.56 62.3853 167.025L-5 158.172V167.025V461C83.2832 401.671 118.741 358.683 165.488 237.107C165.488 237.107 211.885 246.697 213.358 241.902C214.831 237.107 222.195 182.885 214.831 181.041C207.466 179.197 150.284 184.401 120.197 179.197C121.877 214.53 117.132 225.058 106.572 230.836Z" fill="white" stroke="white" stroke-linecap="square"/>
</svg>
