<svg width="447" height="511" viewBox="0 0 447 511" fill="none" xmlns="http://www.w3.org/2000/svg">
<path d="M42.5 298L153.5 429.5C153.5 460.7 56.5 495.833 8 509.5V414.5C28.9018 414.5 57.2448 393.616 76.3775 376.28C58.3743 386.239 26.7536 396.083 8 401L1 313C25.8 313 39 303 42.5 298Z" fill="#216877"/>
<path d="M153.5 429.5L42.5 298C39 303 25.8 313 1 313L8 401C35.3333 393.833 90 376.2 90 363C73.8333 380.167 34.8 414.5 8 414.5V509.5C56.5 495.833 153.5 460.7 153.5 429.5Z" stroke="#216877" stroke-linecap="square"/>
<path d="M10 145L115.5 158V187.5L10 177.5V145Z" fill="#EECDA0" stroke="#EECDA0" stroke-linecap="square"/>
<path d="M252.231 1.4103C273.118 0.30916 289.422 1.04124 289.422 8.41829C289.422 15.7953 297.537 9.72512 302.31 9.89383C307.082 10.0625 331.275 26.616 335.818 35.3446C340.362 44.0733 347.507 61.4938 346.865 77.0248C344.288 149.566 339.132 295.754 339.132 300.18C339.132 304.607 302.555 298.336 284.267 294.648C243.026 284.566 163.857 251.123 163.857 161.123C163.857 71.1233 191.474 36.4513 205.835 25.0168C213.568 18.3775 231.242 2.51685 252.231 1.4103Z" fill="black" stroke="black"/>
<path d="M292.244 6.94287C290.465 6.94287 289.291 9.78709 287.997 9.78709C286.703 9.78709 312.059 23.5341 309.059 15.4755C306.06 7.41689 294.467 6.94287 292.244 6.94287Z" fill="black" stroke="black"/>
<path d="M220.564 169.238L225.719 137.148L280.585 112.435L262.91 177.721L292.368 212.394L265.487 244.853L202.521 233.049L192.579 165.549L220.564 169.238Z" fill="#EECDA0" stroke="#EECDA0"/>
<path d="M329.738 99.9584C323.005 141.344 299.766 165.287 249.742 159.648C211.052 155.286 189.656 119.575 196.389 78.1895C203.122 36.804 238.431 8.12753 275.255 14.1388C312.078 20.1501 337.25 53.7872 329.738 99.9584Z" fill="#EECDA0"/>
<path d="M186.775 86.0839C187.792 79.451 193.179 74.7759 198.807 75.6418C204.436 76.5077 208.74 78.8918 207.157 89.2194C205.573 99.547 200.753 100.527 195.125 99.6615C189.496 98.7956 185.758 92.7167 186.775 86.0839Z" fill="#EECDA0"/>
<path d="M337.161 112.938C335.837 119.516 330.238 123.935 324.656 122.807C319.074 121.679 314.885 119.096 316.948 108.854C319.011 98.6112 323.871 97.8572 329.453 98.9852C335.035 100.113 338.486 106.36 337.161 112.938Z" fill="#EECDA0"/>
<path d="M197.097 74.0741C224.245 74.0741 270.508 36.244 290.246 17.3289V14.5438L251.809 12.1069L225.492 25.3359C204.715 41.582 169.948 74.0741 197.097 74.0741Z" fill="black" stroke="black"/>
<path d="M331.732 96.4033C320.813 104.74 276.408 13.7619 286.599 9.04985C296.79 4.33783 322.997 27.5354 322.997 27.5354C329.427 46.9876 342.651 88.0667 331.732 96.4033Z" fill="black" stroke="black"/>
<path d="M380.742 174.402L360.858 182.516V211.656L386.634 204.279C396.03 199.83 400.276 194.795 406.518 182.516L443.34 100.631C446.68 93.5035 447.06 89.3706 445.918 81.8198C443.904 76.8828 442.058 74.7028 435.239 73.7051C424.128 75.2795 412.861 97.7677 412.041 93.6231C411.222 89.4785 405.781 87.7215 403.94 93.6231C402.099 99.5247 403.453 105.55 406.518 114.279C399.499 138.138 392.932 151.188 380.742 174.402Z" fill="#EECDA0" stroke="#EECDA0" stroke-linecap="square"/>
<ellipse rx="4.05072" ry="4.79479" transform="matrix(0.982211 0.18778 -0.187165 0.982328 237.591 77.3315)" fill="black"/>
<path d="M257.018 98.7867C264.014 94.7297 268.065 108.746 257.018 106.164" stroke="black" stroke-width="3" stroke-linecap="round"/>
<path d="M229.033 106.533C229.951 116.897 238.774 128.94 254.072 131.984C279.6 137.062 289.637 121.394 290.527 119.074" stroke="black" stroke-width="3" stroke-linecap="round"/>
<ellipse rx="4.05072" ry="4.79479" transform="matrix(0.982211 0.18778 -0.187165 0.982328 286.934 88.3972)" fill="black"/>
<ellipse rx="6.78353" ry="3.68824" transform="matrix(0.976926 0.21358 -0.212888 0.977077 227.021 90.6477)" fill="#CE906F"/>
<ellipse rx="6.78353" ry="3.68824" transform="matrix(0.976926 0.21358 -0.212888 0.977077 293.888 105.684)" fill="#CE906F"/>
<rect width="33.8813" height="24.7881" transform="matrix(0.959665 0.281146 -0.280267 0.959922 261.02 177.353)" fill="#EECDA0"/>
<path d="M254.072 230.836C234.763 241.402 212.004 193.56 209.885 167.025L142.5 158.172V167.025V461C230.783 401.671 266.241 358.683 312.988 237.107C312.988 237.107 359.385 246.697 360.858 241.902C362.331 237.107 369.695 182.885 362.331 181.041C354.966 179.197 297.784 184.401 267.697 179.197C269.377 214.53 264.632 225.058 254.072 230.836Z" fill="white" stroke="white" stroke-linecap="square"/>
<path d="M89.9998 152C92.4995 149 144.5 158.5 144.5 158.5L142 460L10.5 309.5C37 301.5 109.333 255.167 142 222C142 222 91.9995 224.5 89.9998 222C88 219.5 87.5 155 89.9998 152Z" fill="white" stroke="white" stroke-linecap="square"/>
</svg>
