<svg width="43" height="43" viewBox="0 0 43 43" fill="none" xmlns="http://www.w3.org/2000/svg">
<path d="M38.3438 0.0625H4.65625C3.43791 0.0625 2.26947 0.546483 1.40798 1.40798C0.546483 2.26947 0.0625 3.43791 0.0625 4.65625L0.0625 38.3438C0.0625 39.5621 0.546483 40.7305 1.40798 41.592C2.26947 42.4535 3.43791 42.9375 4.65625 42.9375H38.3438C39.5621 42.9375 40.7305 42.4535 41.592 41.592C42.4535 40.7305 42.9375 39.5621 42.9375 38.3438V4.65625C42.9375 3.43791 42.4535 2.26947 41.592 1.40798C40.7305 0.546483 39.5621 0.0625 38.3438 0.0625V0.0625ZM36.7752 29.4788L35.3396 35.6995C35.2667 36.0157 35.0888 36.298 34.8348 36.5001C34.5809 36.7022 34.266 36.8124 33.9414 36.8125C18.6289 36.8125 6.1875 24.3988 6.1875 9.05859C6.19889 8.73708 6.31318 8.42772 6.51354 8.17602C6.7139 7.92432 6.98976 7.74357 7.30053 7.66037L13.5212 6.22482C13.6273 6.20238 13.7353 6.18989 13.8438 6.1875C14.1214 6.20151 14.3901 6.28958 14.6222 6.44255C14.8543 6.59553 15.0412 6.80784 15.1635 7.05744L18.0346 13.7567C18.1049 13.9373 18.1441 14.1285 18.1504 14.3223C18.127 14.7472 17.9381 15.1461 17.624 15.4334L13.9978 18.4002C16.195 23.057 19.943 26.805 24.5998 29.0022L27.5666 25.376C27.8539 25.0619 28.2528 24.873 28.6777 24.8496C28.8715 24.8558 29.0627 24.895 29.2433 24.9654L35.9426 27.8365C36.1923 27.9586 36.4047 28.1455 36.5577 28.3776C36.7107 28.6097 36.7987 28.8786 36.8125 29.1562C36.8106 29.2647 36.7981 29.3727 36.7752 29.4788Z" fill="#E4E3E3"/>
</svg>
